{"title":"Total Siyapah 2014 Hindi DVDRip Xvid MP3-RTRG","uid":9945144,"size":735499082,"categoryP":"video","categoryS":"movies","magnet":"?xt=urn:btih:40e2a012fbab67250ba3fa278e5174d5fc3510bf&amp;dn=Total+Siyapah+2014+Hindi+DVDRip+Xvid+MP3-RTRG&amp;tr=udp%3A%2F%2Ftracker.openbittorrent.com%3A80&amp;tr=udp%3A%2F%2Fopen.demonii.com%3A1337&amp;tr=udp%3A%2F%2Ftracker.coppersurfer.tk%3A6969&amp;tr=udp%3A%2F%2Fexodus.desync.com%3A6969","seeders":1,"leechers":1,"uploader":"HeroMaster","files":-1,"time":1397298783,"description":"::::::::: RTRG PRESENTS ::::::::\n\n &lt;a href=&quot;\nhttp://i.imgur.com/CC1cuR4.jpg&quot; rel=&quot;nofollow&quot; target=&quot;_NEW&quot;&gt;\nhttp://i.imgur.com/CC1cuR4.jpg&lt;/a&gt;\n\n\n:::: Total Siyapah 2014 Hindi DVDRip Xvid MP3-RTRG ::::\n\n\n::Information::\n\n\nGeneral:\n\n\nComplete name : Total Siyapah (2014) DVDRip -Xvid By Mx- [RTRG]\nFormat : Matroska\nFormat version : Version 4 / Version 2\nFile size : 695 MiB\nDuration : 1h 48mn\nOverall bit rate mode : Variable\nOverall bit rate : 899 Kbps\nMovie name : Mx- Present\nEncoded date : UTC 2014-04-12 03:54:18\n \n\nVideo:\n\n\nID : 1\nFormat : MPEG-4 Visual\nFormat profile : Advanced Simple@L5\nFormat settings, Matrix : Default (H.263)\nCodec ID : V_MS/VFW/FOURCC / XVID\nCodec ID/Hint : XviD\nDuration : 1h 48mn\nBit rate : 817 Kbps\nWidth : 640 pixels\nHeight : 272 pixels\nDisplay aspect ratio : 2.35:1\nFrame rate mode : Constant\nFrame rate : 23.976 fps\nBit depth : 8 bits\nBits/(Pixel*Frame) : 0.196\nStream size : 632 MiB (91%)\nTitle : Mx- Present\nLanguage : hindi\nDefault : Yes\nForced : No\n \n\nAudio:\n\n\nID : 2\nFormat : MPEG Audio\nFormat version : Version 2\nFormat profile : Layer 3\nMode : Joint stereo\nMode extension : MS Stereo\nDuration : 1h 49mn\nBit rate mode : Variable\nBit rate : 64.0 Kbps\nChannel(s) : 2 channels\nSampling rate : 24.0 KHz\nCompression mode : Lossy\nStream size : 50.0 MiB (7%)\nTitle : Mx-\nLanguage : Hindi\nDefault : Yes\nForced : No\n\n\n::IMDB::\n\n &lt;a href=&quot;\nhttp://www.imdb.com/title/tt2727028/&quot; rel=&quot;nofollow&quot; target=&quot;_NEW&quot;&gt;\nhttp://www.imdb.com/title/tt2727028/&lt;/a&gt;\n\n\n::Greetz and Respect::\n\n\nALL CREDIT Goes to MX for Encoding and SMSadiq for Distribution.\n\n\n::Poster::\n\n &lt;a href=&quot;\nhttp://i.imgur.com/ZGE5DGB.jpg&quot; rel=&quot;nofollow&quot; target=&quot;_NEW&quot;&gt;\nhttp://i.imgur.com/ZGE5DGB.jpg&lt;/a&gt;\n\n\n::Screenshots::\n\n &lt;a href=&quot;\nhttp://i.imgur.com/7a0L5SB.png&quot; rel=&quot;nofollow&quot; target=&quot;_NEW&quot;&gt;\nhttp://i.imgur.com/7a0L5SB.png&lt;/a&gt;\n\n &lt;a href=&quot;\nhttp://i.imgur.com/y3FfRgm.png&quot; rel=&quot;nofollow&quot; target=&quot;_NEW&quot;&gt;\nhttp://i.imgur.com/y3FfRgm.png&lt;/a&gt;\n\n &lt;a href=&quot;\nhttp://i.imgur.com/Y7nOtpT.png&quot; rel=&quot;nofollow&quot; target=&quot;_NEW&quot;&gt;\nhttp://i.imgur.com/Y7nOtpT.png&lt;/a&gt;\n\n\nSEED AND ENJOY!","torrent":{"xt":"urn:btih:40e2a012fbab67250ba3fa278e5174d5fc3510bf","amp;dn":"Total+Siyapah+2014+Hindi+DVDRip+Xvid+MP3-RTRG","amp;tr":["udp%3A%2F%2Ftracker.openbittorrent.com%3A80","udp%3A%2F%2Fopen.demonii.com%3A1337","udp%3A%2F%2Ftracker.coppersurfer.tk%3A6969","udp%3A%2F%2Fexodus.desync.com%3A6969"],"infoHash":"40e2a012fbab67250ba3fa278e5174d5fc3510bf","infoHashBuffer":{"type":"Buffer","data":[64,226,160,18,251,171,103,37,11,163,250,39,142,81,116,213,252,53,16,191]},"announce":[],"urlList":[]}}